<svg width="56" height="56" viewBox="0 0 56 56" fill="none" xmlns="http://www.w3.org/2000/svg">
<rect width="56" height="56" rx="28" fill="#F9F9F9"/>
<path d="M27 20H20C19.4696 20 18.9609 20.2107 18.5858 20.5858C18.2107 20.9609 18 21.4696 18 22V36C18 36.5304 18.2107 37.0391 18.5858 37.4142C18.9609 37.7893 19.4696 38 20 38H34C34.5304 38 35.0391 37.7893 35.4142 37.4142C35.7893 37.0391 36 36.5304 36 36V29" stroke="#959595" stroke-linecap="round" stroke-linejoin="round"/>
<path d="M34.5 18.5002C34.8978 18.1024 35.4374 17.8789 36 17.8789C36.5626 17.8789 37.1022 18.1024 37.5 18.5002C37.8978 18.8981 38.1213 19.4376 38.1213 20.0002C38.1213 20.5628 37.8978 21.1024 37.5 21.5002L28 31.0002L24 32.0002L25 28.0002L34.5 18.5002Z" stroke="#959595" stroke-linecap="round" stroke-linejoin="round"/>
</svg>
