<svg width="56" height="56" viewBox="0 0 56 56" fill="none" xmlns="http://www.w3.org/2000/svg">
<rect width="56" height="56" rx="28" fill="#F9F9F9"/>
<path d="M37 31C37 31.5304 36.7893 32.0391 36.4142 32.4142C36.0391 32.7893 35.5304 33 35 33H23L19 37V21C19 20.4696 19.2107 19.9609 19.5858 19.5858C19.9609 19.2107 20.4696 19 21 19H35C35.5304 19 36.0391 19.2107 36.4142 19.5858C36.7893 19.9609 37 20.4696 37 21V31Z" stroke="#959595" stroke-linecap="round" stroke-linejoin="round"/>
<ellipse cx="24.8" cy="25.5998" rx="0.8" ry="0.8" fill="#959595"/>
<ellipse cx="27.9992" cy="25.5998" rx="0.800001" ry="0.8" fill="#959595"/>
<circle cx="31.2004" cy="25.5998" r="0.8" fill="#959595"/>
</svg>
