<svg width="56" height="56" viewBox="0 0 56 56" fill="none" xmlns="http://www.w3.org/2000/svg">
<rect width="56" height="56" rx="28" fill="#F9F9F9"/>
<path d="M34 24C34 22.4087 33.3679 20.8826 32.2426 19.7574C31.1174 18.6321 29.5913 18 28 18C26.4087 18 24.8826 18.6321 23.7574 19.7574C22.6321 20.8826 22 22.4087 22 24C22 31 19 33 19 33H37C37 33 34 31 34 24Z" stroke="#959595" stroke-linecap="round" stroke-linejoin="round"/>
<path d="M29.7295 37C29.5537 37.3031 29.3014 37.5547 28.9978 37.7295C28.6941 37.9044 28.3499 37.9965 27.9995 37.9965C27.6492 37.9965 27.3049 37.9044 27.0013 37.7295C26.6977 37.5547 26.4453 37.3031 26.2695 37" stroke="#959595" stroke-linecap="round" stroke-linejoin="round"/>
</svg>
