<svg width="24" height="24" viewBox="0 0 24 24" fill="none" xmlns="http://www.w3.org/2000/svg">
<path d="M18 9C18 7.4087 17.3679 5.88258 16.2426 4.75736C15.1174 3.63214 13.5913 3 12 3C10.4087 3 8.88258 3.63214 7.75736 4.75736C6.63214 5.88258 6 7.4087 6 9C6 16 3 18 3 18H21C21 18 18 16 18 9Z" stroke="#626262" stroke-linecap="round" stroke-linejoin="round"/>
<path d="M13.7295 20C13.5537 20.3031 13.3014 20.5547 12.9978 20.7295C12.6941 20.9044 12.3499 20.9965 11.9995 20.9965C11.6492 20.9965 11.3049 20.9044 11.0013 20.7295C10.6977 20.5547 10.4453 20.3031 10.2695 20" stroke="#626262" stroke-linecap="round" stroke-linejoin="round"/>
</svg>
