<svg width="14" height="14" viewBox="0 0 14 14" fill="none" xmlns="http://www.w3.org/2000/svg">
<path d="M11.6667 1H2.33333C1.59695 1 1 1.59695 1 2.33333V11.6667C1 12.403 1.59695 13 2.33333 13H11.6667C12.403 13 13 12.403 13 11.6667V2.33333C13 1.59695 12.403 1 11.6667 1Z" stroke="#959595" stroke-width="0.8" stroke-linecap="round" stroke-linejoin="round"/>
<path d="M4.66602 5.6665C5.2183 5.6665 5.66602 5.21879 5.66602 4.6665C5.66602 4.11422 5.2183 3.6665 4.66602 3.6665C4.11373 3.6665 3.66602 4.11422 3.66602 4.6665C3.66602 5.21879 4.11373 5.6665 4.66602 5.6665Z" stroke="#959595" stroke-width="0.8" stroke-linecap="round" stroke-linejoin="round"/>
<path d="M13.0007 8.99984L9.66732 5.6665L2.33398 12.9998" stroke="#959595" stroke-width="0.8" stroke-linecap="round" stroke-linejoin="round"/>
</svg>
