<svg width="50" height="50" viewBox="0 0 50 50" fill="none" xmlns="http://www.w3.org/2000/svg">
<circle cx="25" cy="25" r="25" fill="#004B45"/>
<path d="M25 32.3335H33.25" stroke="white" stroke-linecap="round" stroke-linejoin="round"/>
<path d="M29.125 17.2082C29.4897 16.8435 29.9843 16.6387 30.5 16.6387C30.7554 16.6387 31.0082 16.689 31.2441 16.7867C31.4801 16.8844 31.6944 17.0276 31.875 17.2082C32.0556 17.3888 32.1988 17.6031 32.2965 17.8391C32.3942 18.075 32.4445 18.3279 32.4445 18.5832C32.4445 18.8386 32.3942 19.0914 32.2965 19.3274C32.1988 19.5633 32.0556 19.7776 31.875 19.9582L20.4167 31.4165L16.75 32.3332L17.6667 28.6665L29.125 17.2082Z" stroke="white" stroke-linecap="round" stroke-linejoin="round"/>
</svg>
