<svg width="22" height="22" viewBox="0 0 22 22" fill="none" xmlns="http://www.w3.org/2000/svg">
<path d="M5.5 1.83331L2.75 5.49998V18.3333C2.75 18.8195 2.94315 19.2859 3.28697 19.6297C3.63079 19.9735 4.0971 20.1666 4.58333 20.1666H17.4167C17.9029 20.1666 18.3692 19.9735 18.713 19.6297C19.0568 19.2859 19.25 18.8195 19.25 18.3333V5.49998L16.5 1.83331H5.5Z" stroke="#626262" stroke-linecap="round" stroke-linejoin="round"/>
<path d="M2.75 5.5H19.25" stroke="#626262" stroke-linecap="round" stroke-linejoin="round"/>
<path d="M14.6668 9.16669C14.6668 10.1391 14.2805 11.0718 13.5929 11.7594C12.9053 12.447 11.9726 12.8334 11.0002 12.8334C10.0277 12.8334 9.09507 12.447 8.40744 11.7594C7.7198 11.0718 7.3335 10.1391 7.3335 9.16669" stroke="#626262" stroke-linecap="round" stroke-linejoin="round"/>
</svg>
