<svg width="12" height="11" viewBox="0 0 12 11" fill="none" xmlns="http://www.w3.org/2000/svg">
<path d="M10.4191 1.30494C10.1637 1.04944 9.86049 0.846759 9.52676 0.708478C9.19303 0.570197 8.83533 0.499023 8.47408 0.499023C8.11284 0.499023 7.75513 0.570197 7.4214 0.708478C7.08768 0.846759 6.78446 1.04944 6.52908 1.30494L5.99908 1.83494L5.46908 1.30494C4.95324 0.78909 4.2536 0.499291 3.52408 0.499291C2.79457 0.499291 2.09493 0.78909 1.57908 1.30494C1.06324 1.82078 0.773438 2.52042 0.773438 3.24994C0.773437 3.97945 1.06324 4.67909 1.57908 5.19494L2.10908 5.72494L5.99908 9.61494L9.88908 5.72494L10.4191 5.19494C10.6746 4.93956 10.8773 4.63634 11.0155 4.30261C11.1538 3.96888 11.225 3.61118 11.225 3.24994C11.225 2.88869 11.1538 2.53099 11.0155 2.19726C10.8773 1.86353 10.6746 1.56031 10.4191 1.30494V1.30494Z" stroke="#959595" stroke-width="0.8" stroke-linecap="round" stroke-linejoin="round"/>
</svg>
