<svg width="10" height="9" viewBox="0 0 10 9" fill="none" xmlns="http://www.w3.org/2000/svg">
<path d="M8.68257 0.920617C8.46975 0.707703 8.21707 0.538803 7.93897 0.423569C7.66086 0.308335 7.36277 0.249023 7.06174 0.249023C6.7607 0.249023 6.46261 0.308335 6.1845 0.423569C5.9064 0.538803 5.65372 0.707703 5.4409 0.920617L4.99924 1.36228L4.55757 0.920617C4.1277 0.490746 3.54467 0.249246 2.93674 0.249246C2.32881 0.249246 1.74577 0.490746 1.3159 0.920617C0.886031 1.35049 0.644531 1.93352 0.644531 2.54145C0.644531 3.14938 0.886031 3.73241 1.3159 4.16228L1.75757 4.60395L4.99924 7.84562L8.2409 4.60395L8.68257 4.16228C8.89548 3.94947 9.06438 3.69679 9.17962 3.41868C9.29485 3.14057 9.35416 2.84249 9.35416 2.54145C9.35416 2.24041 9.29485 1.94233 9.17962 1.66422C9.06438 1.38611 8.89548 1.13343 8.68257 0.920617V0.920617Z" fill="#EE3123" stroke="#EE3123" stroke-width="0.5" stroke-linecap="round" stroke-linejoin="round"/>
</svg>
