<svg width="75" height="22" viewBox="0 0 75 22" fill="none" xmlns="http://www.w3.org/2000/svg">
<g clip-path="url(#clip0_1_5150)">
<path d="M46.9179 17.7865C46.8599 17.6082 46.7612 17.4418 46.6104 17.2813C46.4596 17.1209 46.2275 17.0436 45.9142 17.0436C45.5661 17.0436 45.2935 17.1803 45.0962 17.4477C44.899 17.7211 44.8003 18.0777 44.8003 18.5353C44.8003 18.9869 44.899 19.3494 45.0962 19.6287C45.2935 19.908 45.5661 20.0447 45.9142 20.0447C46.2217 20.0447 46.4538 19.9556 46.6104 19.7773C46.767 19.599 46.8773 19.4088 46.9295 19.2068H47.5386C47.469 19.5158 47.3066 19.8248 47.0455 20.1279C46.7844 20.431 46.4073 20.5855 45.9084 20.5855C45.3689 20.5855 44.9454 20.3953 44.6321 20.015C44.3246 19.6347 44.168 19.1414 44.168 18.5353C44.168 17.9291 44.3246 17.4359 44.6321 17.0674C44.9396 16.693 45.3689 16.5088 45.9084 16.5088C46.4131 16.5088 46.8018 16.6574 47.0629 16.9486C47.324 17.2397 47.4864 17.525 47.5386 17.7865H46.9179Z" fill="#595857"/>
<path d="M51.4308 17.0674C51.7557 17.4418 51.9124 17.9291 51.9124 18.5353C51.9124 19.1474 51.7499 19.6406 51.4308 20.0209C51.1059 20.4013 50.6824 20.5914 50.1545 20.5914C49.6266 20.5914 49.2031 20.4013 48.8898 20.0209C48.5765 19.6406 48.4141 19.1474 48.4141 18.5353C48.4141 17.9291 48.5707 17.4359 48.8898 17.0674C49.2031 16.693 49.6266 16.5088 50.1545 16.5088C50.6824 16.5088 51.1059 16.693 51.4308 17.0674ZM50.9783 19.6287C51.1814 19.3494 51.28 18.9869 51.28 18.5412C51.28 18.1014 51.1814 17.7449 50.9783 17.4656C50.7753 17.1922 50.5026 17.0496 50.1487 17.0496C49.7948 17.0496 49.5221 17.1863 49.3249 17.4656C49.1276 17.7389 49.0348 18.1014 49.0348 18.5412C49.0348 18.9869 49.1334 19.3435 49.3249 19.6287C49.5221 19.908 49.7948 20.0507 50.1487 20.0507C50.5026 20.0507 50.7811 19.908 50.9783 19.6287Z" fill="#595857"/>
<path d="M55.6259 18.874C55.7419 19.0642 55.7883 19.2781 55.7593 19.5099C55.7245 19.807 55.5853 20.0685 55.3416 20.3003C55.0979 20.532 54.7498 20.6449 54.2915 20.6449C53.7868 20.6449 53.4097 20.4845 53.1602 20.1636C52.9108 19.8427 52.7831 19.5158 52.7773 19.1711H53.3633C53.3691 19.4505 53.4619 19.6763 53.6418 19.8427C53.8216 20.0091 54.0363 20.0923 54.2973 20.0923C54.5584 20.0923 54.7556 20.0328 54.8891 19.9199C55.0225 19.8011 55.1037 19.6644 55.1385 19.498C55.1675 19.3613 55.1501 19.2484 55.0805 19.1593C55.0109 19.0701 54.9065 18.9869 54.773 18.9216C54.6106 18.8384 54.4366 18.7908 54.2451 18.773C54.0537 18.7611 53.8622 18.7136 53.6708 18.6304C53.4155 18.5234 53.2183 18.3926 53.0848 18.2263C52.9514 18.0658 52.8876 17.8459 52.905 17.5844C52.9166 17.3289 53.0384 17.0734 53.2589 16.8357C53.4793 16.592 53.8216 16.4731 54.2683 16.4731C54.7905 16.4731 55.1559 16.6336 55.3532 16.9545C55.5562 17.2754 55.6491 17.5488 55.6433 17.7687H55.0631C55.0573 17.5666 54.9935 17.3883 54.8659 17.2398C54.7382 17.0912 54.5352 17.0139 54.2625 17.0139C54.0131 17.0139 53.8274 17.0793 53.7114 17.2041C53.5953 17.3289 53.5315 17.4596 53.5315 17.5963C53.5257 17.7508 53.5721 17.8697 53.6708 17.9469C53.7694 18.0242 53.8738 18.0836 53.9898 18.1252C54.1291 18.1728 54.3031 18.2144 54.512 18.2441C54.7208 18.2797 54.9297 18.3392 55.1327 18.4402C55.3474 18.5353 55.5098 18.6779 55.6259 18.874Z" fill="#595857"/>
<path d="M59.7964 20.4784V17.8815L58.9204 20.4784H58.2648L57.3946 17.8815V20.4844H56.8145V16.5859H57.5048L58.5897 19.7237L59.6688 16.5859H60.3592V20.4784H59.7964Z" fill="#595857"/>
<path d="M61.6543 20.4724V16.5918H64.2998L64.3056 17.1385H62.2344V18.2082L64.2128 18.2142V18.749H62.2344V19.9376H64.352V20.4783H61.6543V20.4724Z" fill="#595857"/>
<path d="M67.072 17.1385V20.4843L66.486 20.4724L66.4802 17.1385H65.2793V16.5918H68.2903V17.1385H67.072Z" fill="#595857"/>
<path d="M69.3066 20.4724V16.5918H69.8752V20.4724H69.3066Z" fill="#595857"/>
<path d="M73.7206 17.7865C73.6626 17.6082 73.564 17.4418 73.4131 17.2813C73.2623 17.1209 73.0302 17.0436 72.7169 17.0436C72.3689 17.0436 72.0962 17.1803 71.8989 17.4477C71.7017 17.7211 71.6031 18.0777 71.6031 18.5353C71.6031 18.9869 71.7017 19.3494 71.8989 19.6287C72.0962 19.908 72.3689 20.0447 72.7169 20.0447C73.0244 20.0447 73.2565 19.9556 73.4131 19.7773C73.5698 19.599 73.68 19.4088 73.7322 19.2068H74.3414C74.2717 19.5158 74.1093 19.8248 73.8482 20.1279C73.5872 20.431 73.2101 20.5855 72.7111 20.5855C72.1716 20.5855 71.7481 20.3953 71.4348 20.015C71.1273 19.6347 70.9707 19.1414 70.9707 18.5353C70.9707 17.9291 71.1273 17.4359 71.4348 17.0674C71.7423 16.693 72.1716 16.5088 72.7111 16.5088C73.2159 16.5088 73.6046 16.6574 73.8656 16.9486C74.1267 17.2397 74.2891 17.525 74.3414 17.7865H73.7206Z" fill="#595857"/>
<path d="M48.9431 4.39795H47.7074V11.0657C47.4637 10.5427 47.191 10.0317 46.9068 9.53841C46.4717 8.80151 46.0133 8.10027 45.5318 7.4644C45.0503 6.82853 44.5572 6.24614 44.0582 5.73506C43.5593 5.22399 43.072 4.78423 42.6021 4.43361L42.5557 4.39795H41.0879V14.459H42.8051V6.91172C43.1822 7.27423 43.5535 7.67834 43.9074 8.12404C44.3599 8.68266 44.7892 9.3007 45.1837 9.96035C45.5782 10.62 45.9495 11.3272 46.2918 12.0581C46.6341 12.7891 46.9474 13.5616 47.2259 14.3401L47.2723 14.4649H49.4652V4.9328C49.4594 4.63566 49.2274 4.39795 48.9431 4.39795Z" fill="black"/>
<path d="M61.1828 4.39795H59.2103L56.7505 11.3925C56.6345 10.8755 56.4894 10.3526 56.3154 9.84744C56.0717 9.12242 55.7816 8.42712 55.4568 7.76748C55.1319 7.10784 54.7606 6.48979 54.3661 5.92523C53.9658 5.35473 53.5365 4.86148 53.0956 4.44549L53.0434 4.39795H51.3203V14.459H52.9273V6.78099C53.1594 7.07812 53.3856 7.4228 53.6061 7.79719C53.931 8.34987 54.2327 8.9798 54.5053 9.65727C54.778 10.3407 55.0158 11.0835 55.2073 11.862C55.4045 12.6405 55.5438 13.4606 55.6192 14.2926L55.6366 14.459H57.4293L59.8891 7.36337V14.459H61.6992V4.9328C61.6992 4.63566 61.4671 4.39795 61.1828 4.39795Z" fill="black"/>
<path d="M70.1519 5.91929L70.587 4.39795H63.2598V8.40929V9.97818V12.5692C63.2598 12.9614 63.312 13.2764 63.4164 13.52C63.5208 13.7696 63.6717 13.9657 63.8573 14.1143C64.043 14.2569 64.2518 14.352 64.4897 14.3996C64.7101 14.4412 64.9538 14.4649 65.2033 14.4649H70.1519L70.587 12.9198H65.6268C65.3425 12.9198 65.2265 12.8663 65.1801 12.8307C65.1626 12.8188 65.093 12.7475 65.093 12.4206V9.98412H70.587V8.41524H65.093V5.91929H70.1519Z" fill="black"/>
<path d="M73.3497 4.39795H71.9922V14.459H73.8661V4.9328C73.8661 4.63566 73.634 4.39795 73.3497 4.39795Z" fill="black"/>
<path d="M37.3277 6.58472C36.8868 5.77057 36.3937 5.04555 35.8716 4.43939L35.8194 4.37402H34.1137L32.6924 8.40914H29.78V4.93264C29.78 4.64145 29.548 4.40374 29.2637 4.40374H27.9468V8.41508H23.2708V4.93264C23.2708 4.64145 23.0387 4.40374 22.7544 4.40374H21.4375V14.4648H23.2766V9.99585H27.9526V14.4648H29.7916V9.98396H32.1528L30.5748 14.4648H32.3907L33.8469 9.98396H37.0319C37.4844 11.2201 37.9021 12.7236 38.1342 14.4648H39.9964L39.9616 14.2449C39.8398 13.5021 39.6541 12.682 39.4163 11.7965C39.2538 11.1963 39.0566 10.5842 38.8419 9.97802H39.9964V8.40914H38.2154C37.9369 7.78515 37.6468 7.16711 37.3277 6.58472ZM35.0884 6.13902C35.0884 6.13902 35.1058 6.16873 35.1348 6.20439C35.2856 6.40644 35.4365 6.62632 35.5815 6.86403C35.8136 7.24436 36.034 7.65441 36.2313 8.08229C36.2777 8.18926 36.3241 8.29623 36.3705 8.4032H34.3458L35.0884 6.13902Z" fill="black"/>
<path d="M38.1973 8.40918C38.4061 8.91431 38.6556 9.56207 38.818 9.97806H39.9841V8.40918H38.1973Z" fill="#8FC31F"/>
<path d="M29.7793 9.97806H37.0137C36.7933 9.39568 36.538 8.79546 36.3698 8.40918H29.7793V9.97806Z" fill="#8FC31F"/>
<path d="M27.9467 8.40918H21.4316V9.97806H27.9467V8.40918Z" fill="#8FC31F"/>
<path d="M73.8661 2.31768C73.8661 2.84658 73.4484 3.27446 72.9321 3.27446C72.4158 3.27446 71.998 2.84658 71.998 2.31768C71.998 1.78878 72.4158 1.3609 72.9321 1.3609C73.4484 1.35496 73.8661 1.78284 73.8661 2.31768Z" fill="#8FC31F"/>
<path d="M9.90899 8.40302C10.4717 8.29011 11.0229 8.15343 11.5508 7.98703C12.6531 7.63641 13.6626 7.15505 14.5096 6.44192C15.3218 5.76445 16.279 4.49271 16.5807 3.09022C16.6329 2.84063 16.6677 2.58509 16.6735 2.32955V2.17504L6.07422 0V5.50297L9.90899 6.57266V8.40302Z" fill="#8FC31F"/>
<path d="M16.6669 5.19385C16.5741 5.62172 16.4581 6.04366 16.3362 6.44182C15.9417 7.73734 15.3906 8.97343 14.7002 10.1323C14.6944 10.1441 14.6828 10.156 14.677 10.1679C13.8532 11.511 12.5711 12.1112 11.1671 12.444C10.9409 12.5094 10.7146 12.5688 10.4825 12.6104C10.2969 12.646 10.0997 12.6698 9.9082 12.6936V12.9432L16.6727 14.3338V5.19385H16.6669Z" fill="#8FC31F"/>
<path d="M1.94349 11.4336C1.9493 11.4217 1.9609 11.4098 1.9667 11.398C2.79051 10.0549 4.07264 9.45468 5.47659 9.12189C5.70285 9.05652 5.92911 8.99709 6.16117 8.95549C6.41063 8.90795 6.6659 8.88418 6.91536 8.84852C7.11841 8.81881 7.32726 8.79504 7.53612 8.77126C8.04665 8.70589 8.54558 8.64647 9.0271 8.56921C9.32297 8.52167 9.61885 8.46818 9.90892 8.40876V6.5784L6.07415 5.5087L0 3.80908V16.2413C0.0870221 15.855 0.19725 15.4806 0.307478 15.124C0.701979 13.8285 1.25312 12.5924 1.94349 11.4336Z" fill="#006935"/>
<path d="M9.72327 12.7176C9.52022 12.7473 9.31137 12.7711 9.10252 12.7949C8.59199 12.8602 8.09306 12.9197 7.61154 12.9969C6.73551 13.1396 5.8885 13.3238 5.0937 13.5793C3.99722 13.9299 2.98776 14.4113 2.13494 15.1244C1.32274 15.8019 0.365493 17.0736 0.0638162 18.4761C0.0348089 18.6009 0.0174044 18.7317 0 18.8565V19.2368L9.90892 22.0002V12.9434V12.6938C9.84511 12.6998 9.78709 12.7117 9.72327 12.7176Z" fill="#006935"/>
</g>
<defs>
<clipPath id="clip0_1_5150">
<rect width="74.3111" height="22" fill="white"/>
</clipPath>
</defs>
</svg>
