<svg width="100" height="100" viewBox="0 0 100 100" fill="none" xmlns="http://www.w3.org/2000/svg">
<rect width="100" height="100" rx="30" fill="#004B45"/>
<path d="M79.6673 64.6482V73.4246C79.6707 74.2394 79.5024 75.0458 79.1733 75.7923C78.8441 76.5389 78.3614 77.209 77.7561 77.7598C77.1507 78.3106 76.436 78.7299 75.6578 78.9909C74.8795 79.2519 74.0549 79.3489 73.2367 79.2756C64.1596 78.2974 55.4405 75.2213 47.7798 70.2944C40.6525 65.8028 34.6098 59.81 30.0809 52.7416C25.0956 45.1096 21.9932 36.4204 21.0249 27.3778C20.9512 26.5688 21.0481 25.7535 21.3096 24.9837C21.571 24.2139 21.9912 23.5065 22.5434 22.9066C23.0956 22.3067 23.7677 21.8273 24.5169 21.4991C25.2661 21.1709 26.076 21.001 26.8951 21.0003H35.7445C37.1761 20.9863 38.5639 21.4891 39.6494 22.4148C40.7348 23.3406 41.4438 24.6262 41.6442 26.0321C42.0177 28.8407 42.7104 31.5984 43.709 34.2526C44.1059 35.2997 44.1918 36.4377 43.9565 37.5317C43.7213 38.6258 43.1747 39.63 42.3816 40.4254L38.6353 44.1407C42.8346 51.4648 48.9492 57.5289 56.3343 61.6935L60.0805 57.9782C60.8825 57.1916 61.8951 56.6496 62.9982 56.4162C64.1014 56.1829 65.2488 56.2681 66.3046 56.6617C68.9809 57.6521 71.7616 58.3391 74.5936 58.7095C76.0266 58.91 77.3352 59.6258 78.2707 60.7208C79.2062 61.8157 79.7032 63.2135 79.6673 64.6482Z" stroke="white" stroke-width="2" stroke-linecap="round" stroke-linejoin="round"/>
</svg>
